<svg id="Layer_1" data-name="Layer 1" xmlns="http://www.w3.org/2000/svg" width="600" height="600" viewBox="0 0 600 600"><defs><style>.cls-1{fill:#d2d9ff;}.cls-2{fill:#30c5cc;}.cls-3{fill:#3d9cff;}.cls-4{fill:#7da2ff;}.cls-5{fill:#4958ed;}.cls-6{fill:#db5a28;}.cls-7{fill:#2f2f8e;}.cls-8{fill:#4c49a2;}.cls-9{fill:#fff;}.cls-10{fill:#e67750;}.cls-11{fill:#efefef;}.cls-12{fill:#fd9e71;}.cls-13{fill:#201251;}.cls-14{fill:#0b9b9b;}.cls-15{fill:#31d0a8;}.cls-16{fill:#feba40;}.cls-17{fill:#fedb9b;}.cls-18{fill:#4cb0dd;}.cls-19{fill:#75d5ef;}.cls-20{fill:#fdbe44;}.cls-21{fill:#98dbe5;}.cls-22{fill:#86d2e8;}.cls-23{fill:#f6fffa;}.cls-24{fill:#ffe780;}.cls-25{fill:#1fb288;}.cls-26{fill:#9e472d;}.cls-27{fill:#262845;}.cls-28{fill:#6aa5cc;}.cls-29{fill:#96c4ea;}.cls-30{fill:#1a133a;}.cls-31{fill:#e79673;}</style></defs><ellipse class="cls-1" cx="162.35" cy="538.85" rx="79.18" ry="10.44"/><path class="cls-1" d="M600,525.8c0,4.33-35.84,7.83-80,7.83s-80-3.5-80-7.83S475.74,518,520,518,600,521.48,600,525.8Z"/><polygon class="cls-2" points="24.73 437.26 15.31 437.26 15.31 427.84 9.43 427.84 9.43 437.26 0 437.26 0 443.14 9.43 443.14 9.43 452.57 15.31 452.57 15.31 443.14 24.73 443.14 24.73 437.26"/><path class="cls-3" d="M33.31,419.92a5.83,5.83,0,1,1-5.82-5.83A5.82,5.82,0,0,1,33.31,419.92Z"/><rect class="cls-4" x="44.12" y="88.15" width="507.98" height="407.2" rx="18.48"/><rect class="cls-5" x="109.01" y="53.11" width="378.19" height="477.28" rx="12.01" transform="translate(589.86 -6.36) rotate(90)"/><rect class="cls-1" x="71.98" y="113.59" width="452.26" height="356.32" rx="7.76"/><path class="cls-5" d="M13.62,469.12a58.15,58.15,0,0,0,49.65,28.09H533a58.15,58.15,0,0,0,49.65-28.09Z"/><path class="cls-4" d="M19.69,477.37H576.53a59.19,59.19,0,0,0,6.07-8.25h-569A59.19,59.19,0,0,0,19.69,477.37Z"/><rect class="cls-6" x="107.54" y="325.39" width="126.45" height="70.77"/><rect class="cls-2" x="231.22" y="144.24" width="47.57" height="6.55"/><rect class="cls-2" x="169.71" y="144.24" width="29.04" height="6.55"/><rect class="cls-2" x="103.41" y="144.24" width="57.53" height="6.55"/><rect class="cls-2" x="207.85" y="144.24" width="12.48" height="6.55"/><rect class="cls-2" x="290.9" y="144.24" width="28.94" height="6.55"/><rect class="cls-2" x="231.22" y="163.39" width="17.85" height="6.55"/><rect class="cls-2" x="256.17" y="163.39" width="17.85" height="6.55"/><rect class="cls-2" x="140.13" y="163.39" width="29.04" height="6.55"/><rect class="cls-2" x="103.41" y="163.39" width="28.49" height="6.55"/><rect class="cls-2" x="177.14" y="163.39" width="47.82" height="6.55"/><path class="cls-7" d="M187.29,526.82c-3-9.65-8.84-50.48-10.15-66.47-.27-3.39-37.48-17.92-37.48-17.92-21.79-.55-33,8-33,8L159,468.09c0,23.58,20.11,59.16,20.11,59.16Z"/><path class="cls-8" d="M142.42,472.77l-15.53,54.09,8.88,1.94c3.86-12.76,26.22-56.49,26.82-61.69.26-2.22.1-3.93-.73-4.62s-25.9-15.68-33.18-17.32c-9.75-2.19-24.24-5.7-24.24-5.7a29.22,29.22,0,0,0-6.57,22.43C99.46,475.79,142.42,472.77,142.42,472.77Z"/><path class="cls-9" d="M121.46,377.66s-17,1.51-17.79,6.15,8.12,34,8.12,34l-8.65,23.08s24.55,6.05,36.52,1.54c1.13.52,3.07-24.23,3.07-24.23L147,406l5.4,18.35,12.38,17.4,8.12-6.57-9-15.85s-14-31.86-17.66-35.56C139.25,376.85,121.46,377.66,121.46,377.66Z"/><path class="cls-10" d="M135,378.88l-1.32-17.5H120.88v16.35c-1.62.18,1.74,13.23,12,13.23C132.9,391,137.7,389.22,135,378.88Z"/><path class="cls-11" d="M109.09,408.54c1.49,5.27,2.7,9.27,2.7,9.27l-8.65,23.08s18.68,4.6,31.39,2.78c-1.13-.83-16.2-11-16.94-15.41C116,419,109.09,408.54,109.09,408.54Z"/><path class="cls-12" d="M146.32,343.7c-1.08-4.48-8.07-5.77-19.12-4.48-7.52.89-9.21,7.8-9.42,12.95l-.33.07a6.1,6.1,0,0,0-4.3,6.06,5.92,5.92,0,0,0,1.49,3.73,6.24,6.24,0,0,0,4.54,2.9,5.87,5.87,0,0,0,1.57,0c3.13,6.51,8.87,14.63,16.93,13.66C149.49,370.3,146.32,343.7,146.32,343.7Z"/><path class="cls-13" d="M121,355.5a8.57,8.57,0,0,1,3.06-10c5.51-4.13,5.88,2,11.69,2.72s11.53.27,10.9,4.11c3.52-8.67-1.56-13.62-7.24-16.34s-14.57-3.89-20.75,1.27-5.34,17.53-5.34,17.53C117.41,352.83,118.5,354.43,121,355.5Z"/><path class="cls-13" d="M118.68,337.27s-5.13-13.78-14.85-10.37-5.33,23-6.4,31.51-7.18,8.89-9.37,5.11c-4.06,7.72,11.85,15.57,17,8.14s2.19-26.23,5.51-28.14,6.65.57,6.65.57Z"/><path class="cls-9" d="M104.06,382.26c-4.09,2.36-11.61,30.53-11.61,35.17s36.23,27.74,36.23,27.74,1.67-5.7,5.54-6.86c-.77-.39-27.07-25.52-27.07-25.52l7-19.7S114.11,376.46,104.06,382.26Z"/><polygon class="cls-2" points="125.91 448.72 162.83 447.59 186.81 456.48 146.22 458.64 125.91 448.72"/><polygon class="cls-14" points="146.22 458.64 125.91 450.77 125.91 448.72 147.83 456.63 146.22 458.64"/><polygon class="cls-14" points="146.22 458.64 158.43 425.32 198.8 427.48 186.81 457.26 146.22 458.64"/><path class="cls-2" d="M171,440.06c-1.2,2.4-.84,5,.81,5.83s3.95-.45,5.15-2.85.84-5-.81-5.84S172.22,437.66,171,440.06Z"/><path class="cls-12" d="M134.22,438.31s14.69,11.6,13.15,12.37-8.12.78-11.6-1.16-7.09-4.35-7.09-4.35S130,438.7,134.22,438.31Z"/><path class="cls-13" d="M136.15,526.09c2.61,2.64,11.48,6.65,15.86,7.73,4.68,1.17,3.86,5.1.44,5.1-6.73,0-21.69-.84-29.06-.84-1.16-3.48.84-8.14,3.19-11.27C127.29,525.85,135.78,525.71,136.15,526.09Z"/><path class="cls-13" d="M189.13,526.09c2.61,2.64,11.48,6.65,15.85,7.73,4.69,1.17,3.87,5.1.45,5.1-6.73,0-21.69-.84-29.06-.84-1.16-3.48.84-8.14,3.18-11.27C180.27,525.85,188.76,525.71,189.13,526.09Z"/><rect class="cls-15" x="108.22" y="297.89" width="35.46" height="9.77"/><rect class="cls-15" x="198.53" y="297.89" width="35.46" height="9.77"/><rect class="cls-15" x="153.37" y="297.89" width="35.46" height="9.77"/><rect class="cls-16" x="230.83" y="122.59" width="115.69" height="43.1" transform="translate(-26.02 72.89) rotate(-13.78)"/><rect class="cls-17" x="234.17" y="130.97" width="85.22" height="5.96" transform="translate(-23.94 69.77) rotate(-13.78)"/><rect class="cls-17" x="236.9" y="142.93" width="71.21" height="5.96" transform="translate(-26.91 69.09) rotate(-13.78)"/><rect class="cls-17" x="240.2" y="158.65" width="33.78" height="5.96" transform="translate(-31.09 65.87) rotate(-13.78)"/><rect class="cls-9" x="310.26" y="131.61" width="18.09" height="5.96" transform="translate(-22.86 79.91) rotate(-13.78)"/><rect class="cls-9" x="106.88" y="184.14" width="126.2" height="102.98"/><rect class="cls-18" x="242.53" y="243.53" width="248.18" height="46.44"/><rect class="cls-9" x="416.12" y="250.25" width="67.16" height="33"/><rect class="cls-19" x="251.6" y="252.25" width="155.24" height="6.36"/><rect class="cls-19" x="251.6" y="263.57" width="155.24" height="6.36"/><rect class="cls-19" x="251.6" y="274.88" width="104.51" height="6.36"/><rect class="cls-9" x="242.59" y="323.14" width="238.5" height="111.91"/><rect class="cls-20" x="242.59" y="323.14" width="238.5" height="18.55"/><rect class="cls-21" x="248.37" y="368.08" width="137.72" height="9.45"/><rect class="cls-21" x="248.37" y="384.88" width="123.5" height="9.45"/><rect class="cls-21" x="248.37" y="401.67" width="83.3" height="9.45"/><rect class="cls-21" x="248.37" y="352.61" width="49.64" height="9.45"/><rect class="cls-22" x="399.5" y="352.15" width="72.03" height="72.03"/><path class="cls-23" d="M442.89,387.7a9.15,9.15,0,0,0,1.81-5.46v-5.5a9.18,9.18,0,0,0-18.35,0v5.5a9.12,9.12,0,0,0,2,5.69,21.66,21.66,0,0,0-14.45,20.41h45.37S457.49,391.93,442.89,387.7Z"/><path class="cls-6" d="M259.59,332.89a4.68,4.68,0,1,1-4.68-4.68A4.68,4.68,0,0,1,259.59,332.89Z"/><path class="cls-24" d="M274.59,332.89a4.68,4.68,0,1,1-4.68-4.68A4.69,4.69,0,0,1,274.59,332.89Z"/><path class="cls-25" d="M292,332.89a4.68,4.68,0,1,1-4.68-4.68A4.68,4.68,0,0,1,292,332.89Z"/><rect class="cls-6" x="399.88" y="139.78" width="83.53" height="83.53"/><path class="cls-26" d="M516.83,510.83s.72,2.2-6,5.27-13.86,2-15.6,4.57a14,14,0,0,0-2.15,5H531.4s-.29-10.58-4.63-15.28C527.32,511.43,516.83,510.83,516.83,510.83Z"/><path class="cls-26" d="M558.59,510.82s.69,2.11-5.79,5.06-13.32,1.92-15,4.4a13.75,13.75,0,0,0-2.07,4.84H572.6s-.28-10.18-4.46-14.7C568.67,511.39,558.59,510.82,558.59,510.82Z"/><polygon class="cls-9" points="509.28 309.24 481.44 314.13 461.87 272.23 491.84 269.78 509.28 309.24"/><path class="cls-27" d="M474.52,305h0Q474.4,305.06,474.52,305Z"/><path class="cls-12" d="M528.55,230.62s-3.67,7.35-3.67,14.08c0,4.7.6,11.5,1,15.16a2.11,2.11,0,0,0,2.72,1.82l5.49-1.69-.3,7.95,15.31-.26,3.35-32.16S539.56,221.45,528.55,230.62Z"/><path class="cls-13" d="M529.7,247.51s.86-6.37,5.67-5-.7,7.74-.7,7.74l4.58,8.26a14.09,14.09,0,0,0,10.71-.31s5.1-15.49,5.1-20.39-4.46-8.2-4.46-8.2-12-6-18.38-5.67-7,6.73-7,6.73-2.44,4.9,0,7S529.7,247.51,529.7,247.51Z"/><path class="cls-28" d="M549.76,263.25l-.7,4.43-15.82.06S536.3,262.84,549.76,263.25Z"/><path class="cls-12" d="M482.05,302.81s1.11-3.47-3.36-5.5c.11-.82-.9-4.88-1.84-5.81s-1.53,4.28-1.53,4.28-4.38-7.8-5.5-5.81,9.89,17.33,10.19,17.94S482.05,302.81,482.05,302.81Z"/><path class="cls-13" d="M523.25,353.18l-10.61,89.73,2.15,69.55,13.35-1s3.77-36.58,4.08-45.76-2.45-23.25-2.45-23.25L543.23,387l2.24.41.62,54.65,12.26,69.42,11.22.54s.27-35.8-.64-44.67-5.71-26.61-5.71-26.61l4.89-56.59s4.89-14.89-3.87-31.61C563.11,352.67,523.25,353.18,523.25,353.18Z"/><path class="cls-29" d="M533.24,267.74s-19,6.12-22.43,9.58-13.41,39.2-13.41,39.2l-15-15-4.64,10.89s17.54,26.1,23,26.92,17.95-33,17.95-33S519.89,324.77,522,334a57.88,57.88,0,0,1,1.23,19.17c17,3.08,31.4,2.45,41-.61L569,317s6.47.75,8.51-1.49-7.34-39.16-9.38-42-19.05-5.77-19.05-5.77Z"/><path class="cls-28" d="M551.71,292.23c-.11-.72-1.3-.55-1.28.17a232,232,0,0,1-2.35,45.46c-.16,1,1.35,1.48,1.58.44A132.42,132.42,0,0,0,551.71,292.23Z"/><path class="cls-28" d="M569.11,303.59c-.1-.51-.88-.38-.89.12a151.34,151.34,0,0,1-3,26.32c-1.51,7.81-2.89,15.64-2.38,23.63.07,1.12,1.8,1.14,1.75,0-.39-9.23,1.49-18.14,3.17-27.16C569.18,319,570.62,311.17,569.11,303.59Z"/><path class="cls-28" d="M520.5,303.32c-5.1,3.23-7,9.57-9,15-2.64,7.29-5.27,14.45-11,19.92-.86.82.42,2.08,1.29,1.3,10.6-9.55,10.1-25.15,19.14-35.58C521.23,303.61,520.88,303.07,520.5,303.32Z"/><path class="cls-26" d="M564.44,349.92s-25.7,3.26-41.19-1.63c.4,0,0,4.89,0,4.89a77.75,77.75,0,0,0,42.41,1.63C565.48,354.74,564.44,349.92,564.44,349.92Z"/><path class="cls-30" d="M298.57,454.36s-2.13,4.64-5.8,5.41-13.35,2.9-14.89,4.25-1.55,4.84-1.55,4.84H307s-.06-9.29-1.84-14.12C305.91,454.74,298.57,454.36,298.57,454.36Z"/><path class="cls-30" d="M357.73,454.36s-2.13,4.64-5.8,5.41S338.59,462.67,337,464s-1.54,4.84-1.54,4.84h30.68s-.05-9.29-1.83-14.12C365.08,454.74,357.73,454.36,357.73,454.36Z"/><path class="cls-31" d="M354,152.77s-8.55-2.18-9.06-.82,13.21,5.42,13.21,5.42l12.36,34.28-4.63,11,8.51,9.28s9.28-12.57,10.05-16.25-22-40.6-22-40.6-4.53-14.39-5.22-15.08-8.86-.26-10.72-.23,5.39,7.36,5.39,7.36Z"/><path class="cls-31" d="M320.72,178.14s-4.08,5.72-5,11.81a39.79,39.79,0,0,0,.29,11.89l7.48-.25v7H338.4a77.75,77.75,0,0,1,.87-8.2c.58-2.9,4.64-8.41,4.64-8.41l-6.67-18.85-9.57-.87Z"/><path class="cls-13" d="M324.48,187.05s2.61-6.09,5.8-3.77-.87,7.25-.87,7.25,2,8.41,5.51,9.57l3.48,1.16s9-8.41,10.44-10.73-2.32-15.66-4.93-18.56-13.92-2.61-14.79-4.06-3.77-4.06-6.67-2.9-2.33,10.73-2.33,10.73,3.59,3.09,3.83,5.31-1.43,5.18-1.43,5.18Z"/><path class="cls-13" d="M310.42,209s14.83-2.16,23.34-2.35,22,4.25,22,4.25l9.85-10.55,12.55,11.8s-10.68,15.76-14.13,19.43-5.95,20.89-6.73,26.11-2.7,35.77-2.7,35.77-9.09,10.83-46.41-1c-.38-.38,1.55-22.43,1.36-27.84s-5-23.78-6-28.23-16.38-13.34-16.38-13.34-1.9-10.84,5.21-16.05C293.35,207.64,310.42,209,310.42,209Z"/><path class="cls-31" d="M275.94,164.72s-5.6,5.22-6,7.35,7.72,26.35,7.72,26.35l14.75,8.64-5.21,16.05s-16.1-11.21-18.42-14.5-6.38-36.16-6.38-36.16-5.22-6.57-5.61-8.31-1.6-7.43-.7-8.55,6.88-7.31,7.75-5.47,4.1,15.23,4.1,15.23S274.59,162.4,275.94,164.72Z"/><path class="cls-8" d="M308.23,292.52l-8.41,79.28-4.35,84.1,14.5.58s9-55.8,9.14-64.3-.15-18.64-.15-18.64l9.29-42.35h5.22L344.2,386.3l11,68.44,11.6.58s1.74-42.63,0-51.33-4.35-17.11-4.35-17.11l-5.22-57.14s4.64-20.3-2.61-36.25C353.19,290.59,308.23,292.52,308.23,292.52Z"/><polygon class="cls-20" points="219.63 202.34 210.21 202.34 210.21 192.91 204.32 192.91 204.32 202.34 194.9 202.34 194.9 208.22 204.32 208.22 204.32 217.65 210.21 217.65 210.21 208.22 219.63 208.22 219.63 202.34"/><path class="cls-2" d="M131.9,275.08a14.74,14.74,0,1,1,14.73-14.74A14.75,14.75,0,0,1,131.9,275.08Zm0-21.78a7,7,0,1,0,7,7A7.05,7.05,0,0,0,131.9,253.3Z"/><polygon class="cls-2" points="585.06 139.69 575.64 139.69 575.64 130.27 569.76 130.27 569.76 139.69 560.33 139.69 560.33 145.58 569.76 145.58 569.76 155 575.64 155 575.64 145.58 585.06 145.58 585.06 139.69"/><path class="cls-3" d="M538,75.36a5.83,5.83,0,1,1-5.83-5.82A5.83,5.83,0,0,1,538,75.36Z"/><path class="cls-16" d="M424.24,177.63A14.74,14.74,0,1,1,439,162.89,14.76,14.76,0,0,1,424.24,177.63Zm0-21.78a7,7,0,1,0,7.05,7A7.05,7.05,0,0,0,424.24,155.85Z"/><path class="cls-16" d="M502.55,80.18a14.74,14.74,0,1,1,14.74-14.74A14.75,14.75,0,0,1,502.55,80.18Zm0-21.78a7,7,0,1,0,7.05,7A7.05,7.05,0,0,0,502.55,58.4Z"/></svg>